<?xml version="1.0" encoding="UTF-8" standalone="no"?>
<!-- Created with Inkscape (http://www.inkscape.org/) -->

<svg
   version="1.1"
   id="svg1"
   width="936"
   height="936"
   viewBox="0 0 936 936"
   xmlns="http://www.w3.org/2000/svg"
   xmlns:svg="http://www.w3.org/2000/svg">
  <defs
     id="defs1" />
  <g
     id="g1">
    <path
       style="fill:#000000"
       d="m 133.94414,850.25292 c -11.14744,-2.44587 -23.53294,-7.66898 -28.44012,-11.99354 -10.492966,-9.24715 -9.552556,-28.30627 1.68337,-34.1166 6.13061,-3.17026 11.81206,-2.5094 24.83844,2.88915 11.15774,4.62414 12.8853,4.95695 25.95341,5 20.96382,0.0691 27.17841,-4.05562 31.53244,-20.92836 1.87749,-7.27566 2.17713,-20.28081 2.31228,-100.35885 0.14404,-85.34163 0.32616,-92.31271 2.51636,-96.32078 3.57157,-6.53598 7.89985,-8.68667 18.71827,-9.30095 11.95502,-0.67882 17.79869,1.89517 21.31084,9.38687 2.243,4.78451 2.36212,11.06587 1.93419,102 -0.40088,85.18607 -0.72061,97.76694 -2.64455,104.05962 -10.01573,32.7586 -34.25779,49.91579 -72.80572,51.52787 -12.11477,0.50665 -18.04699,0.10004 -26.90921,-1.84443 z m 191.36843,0.54607 c -24.80043,-4.53066 -42.14583,-19.88937 -47.33052,-41.9094 -2.58691,-10.98695 -1.06619,-24.86885 3.85356,-35.17727 12.16074,-25.48054 40.86603,-35.90068 93.21158,-33.83623 l 21.85979,0.86213 -0.85787,-8.33009 c -1.5958,-15.49562 -3.23745,-20.30308 -8.87879,-26.00081 -6.76513,-6.83276 -14.20365,-9.01169 -30.52442,-8.94134 -14.53728,0.0627 -22.31346,2.1961 -36.83081,10.10477 -14.10096,7.68182 -22.86439,6.78772 -27.84347,-2.84076 -3.17463,-6.13906 -2.50152,-13.32703 1.89757,-20.26368 4.85423,-7.65432 17.1892,-14.10871 36.77671,-19.24374 17.19518,-4.50786 42.69635,-5.05007 57.33334,-1.21903 32.28882,8.45118 45.65428,25.49029 48.68627,62.06825 0.69934,8.43677 1.28101,31.61613 1.29262,51.50967 0.0159,27.32072 0.42887,36.49371 1.68777,37.4929 0.91667,0.72756 3.95388,2.05983 6.74936,2.96062 8.09232,2.60758 9.89136,10.97822 4.58398,21.32856 -3.98631,7.77399 -9.71984,10.71451 -20.89157,10.71451 -14.29462,0 -22.35436,-5.65809 -28.01443,-19.66667 -0.96297,-2.38333 -2.0337,-4.33333 -2.37939,-4.33333 -0.34569,0 -4.17984,3.21376 -8.52034,7.14169 -10.13785,9.17422 -21.84046,15.04219 -34.97823,17.53892 -12.30766,2.33897 -18.25764,2.34674 -30.88271,0.0403 z m 46.56386,-34.55873 c 7.54878,-3.20218 16.21919,-10.74838 20.24753,-17.62222 3.03075,-5.17157 3.51701,-7.58693 3.67416,-18.2502 l 0.18112,-12.28979 -14.66667,-1.20923 c -29.71661,-2.45005 -51.47051,2.76262 -58.99774,14.13703 -4.06664,6.14511 -4.87019,16.22586 -1.86162,23.35456 2.06193,4.88566 9.05174,10.67336 16.07242,13.30828 6.48286,2.43307 28.32868,1.55034 35.3508,-1.42843 z m 382.31936,34.58304 c -19.88787,-3.78847 -33.18966,-10.86456 -47.60468,-25.32405 -17.94655,-18.00191 -24.42314,-34.40945 -25.56071,-64.75453 -0.56961,-15.19476 -0.24443,-19.80149 2.08654,-29.55936 8.24465,-34.51353 29.59419,-57.09964 63.55181,-67.2327 12.3457,-3.68401 35.76493,-3.39114 48.59683,0.60773 23.71666,7.39093 38.11937,19.12715 47.9518,39.0741 8.96636,18.18997 13.24128,45.45493 8.52143,54.34878 -5.12234,9.65228 -2.34908,9.26104 -68.75837,9.70021 l -59.66547,0.39457 -10e-4,3.42467 c -0.002,5.76263 4.0174,17.56729 8.25292,24.23802 8.44175,13.29533 23.00897,20.97368 41.74588,22.00414 15.33694,0.84347 25.80151,-1.73367 39.39189,-9.70116 12.52232,-7.34133 16.75862,-8.30175 23.17917,-5.25501 5.90542,2.80231 8.76524,7.88471 8.75349,15.55646 -0.0196,12.79896 -14.46446,23.9636 -39.44411,30.48698 -13.72791,3.58501 -37.7138,4.52152 -50.99722,1.99115 z m 26.7992,-111.10428 33.01576,-0.30764 -0.86812,-5.66666 c -1.76242,-11.5043 -5.90271,-20.07134 -13.12589,-27.15997 -23.82133,-23.37759 -63.79989,-12.23914 -74.05951,20.63375 -4.18854,13.42053 -4.55101,13.03182 12.02201,12.89233 5.5,-0.0463 24.85709,-0.2226 43.01575,-0.39181 z M 496.6459,849.13641 c -3.17182,-1.15947 -8.17861,-6.12172 -9.42111,-9.33729 -0.626,-1.62007 -1.21931,-38.88971 -1.31846,-82.8214 -0.20309,-89.98158 -0.66478,-85.70165 9.79083,-90.76312 15.46177,-7.48491 31.61541,1.40239 31.61541,17.39396 0,3.55822 0.17602,6.46949 0.39117,6.46949 0.21514,0 4.00174,-3.51118 8.41467,-7.80262 25.97795,-25.2628 67.54248,-28.17387 93.96126,-6.58081 11.31069,8.81059 17.04732,21.80932 17.80268,35.0501 l 0.48897,63.33333 c 0.44023,57.02066 0.26861,63.74556 -1.72179,67.4691 -6.4277,12.02461 -33.19756,11.26078 -38.12383,-1.08779 -1.29851,-3.25493 -1.93754,-18.77818 -2.48566,-60.38131 l -0.7378,-56 c -0.84465,-11.54253 -11.41338,-24.04679 -29.13412,-25.6968 -15.5806,-0.9999 -23.37646,1.92293 -34.15604,12.80584 -5.4314,5.48348 -9.50255,10.93497 -10.62262,14.22429 -1.37805,4.04692 -1.93119,18.19755 -2.29327,58.66667 -0.52997,59.23435 -0.59273,59.66656 -9.26576,63.80244 -4.46238,2.12796 -18.69057,2.89871 -23.18453,1.25592 z M 443.67664,603.79699 c -1.87917,-2.87304 -2.35665,-6.3979 -2.32788,-17.18503 0.035,-13.12741 0.21077,-13.9219 5.38167,-24.32646 l 5.34548,-10.75583 -7.85889,-10.2384 c -4.3224,-5.63113 -14.24415,-18.22577 -22.04834,-27.98809 -7.8042,-9.76233 -17.61449,-22.13166 -21.80065,-27.48741 -4.18617,-5.35574 -16.18617,-20.59902 -26.66667,-33.87394 -10.4805,-13.27491 -27.75546,-35.15941 -38.38879,-48.6322 -36.71003,-46.51287 -40.02551,-50.56492 -41.37328,-50.56492 -0.74413,0 -3.88956,2.29538 -6.98985,5.10084 -11.0307,9.98177 -9.26875,9.56583 -40.52152,9.56583 -17.4405,0 -28.60766,-0.51187 -29.11613,-1.33459 -0.45366,-0.73403 2.19674,-5.08403 5.88977,-9.66668 3.69303,-4.58264 9.44389,-11.76014 12.77969,-15.95 l 6.0651,-7.61793 -2.58483,-3.04874 c -11.85168,-13.9787 -22.79408,-28.44715 -22.40313,-29.62223 0.31204,-0.93789 10.15209,-1.54979 28.72822,-1.78644 30.87011,-0.39327 30.88555,-0.39029 39.76401,7.69327 9.74707,8.8744 8.92863,8.77664 14.26386,1.70392 4.67024,-6.19119 7.76356,-10.0908 28.92219,-36.46102 30.26909,-37.72469 48.03416,-60.04749 54.5759,-68.57764 4.03333,-5.2593 18.59847,-23.61051 32.36697,-40.78048 13.7685,-17.16995 27.75843,-34.64616 31.08874,-38.83601 l 6.05511,-7.61792 -5.75541,-11.61363 c -5.64056,-11.381894 -5.75541,-11.882844 -5.75541,-25.104354 0,-15.78412 2.03311,-20.71286 8.54406,-20.71286 5.05132,0 7.69012,4.23042 7.80026,12.50509 0.0618,4.64581 1.44621,9.25609 4.84347,16.13 6.95361,14.069674 20.06281,25.986904 47.47888,43.161804 31.7656,19.89968 41.76308,27.30701 56.06066,41.53643 18.49419,18.40605 30.5473,38.41792 38.14554,63.33334 3.47272,11.38741 3.65529,13.32726 3.57636,38 -0.0738,23.06213 -0.45134,27.43127 -3.34144,38.66666 l -3.25828,12.66667 35.94234,0.35513 c 19.76829,0.19532 36.20287,0.0946 36.52129,-0.22382 0.31842,-0.31843 -1.62055,-5.21395 -4.30883,-10.87895 -2.68827,-5.665 -4.98899,-11.86368 -5.11271,-13.77483 -0.3969,-6.13127 4.53036,-5.03939 28.20393,6.25 12.23079,5.83259 28.9878,13.7738 37.2378,17.64714 10.41915,4.89174 15,7.73084 15,9.29662 0,1.5928 -5.96581,5.10887 -20.33333,11.98386 -33.89836,16.22066 -53.52553,25.13453 -56.33333,25.58433 -4.06898,0.65184 -4.1131,-4.64675 -0.11291,-13.56036 1.89545,-4.22364 3.78859,-9.40429 4.20697,-11.51256 l 0.76069,-3.83323 -36.17854,-0.31646 c -34.3406,-0.30039 -36.13975,-0.19426 -35.41508,2.089 0.41991,1.323 2.25317,9.56541 4.07393,18.31647 3.84023,18.45725 4.4448,43.8659 1.44138,60.57767 -5.1346,28.57012 -25.33092,61.84787 -49.80785,82.06908 -9.63609,7.9607 -33.68912,24.20442 -56.30193,38.02237 -14.65031,8.95232 -29.09,21.90507 -35.08298,31.47027 -4.59261,7.33012 -8.91702,20.38539 -8.91702,26.92023 0,5.52821 -1.43138,6.85138 -7.41164,6.85138 -2.00239,0 -4.07532,-1.34813 -5.55762,-3.61439 z m 42.96926,-82.63021 c 6.6,-4.37503 18.20421,-12.09719 25.78714,-17.16037 28.6947,-19.15965 48.93227,-44.33447 58.87087,-73.23327 4.10086,-11.92422 6.21216,-36.48602 4.33942,-50.48269 -1.23149,-9.2041 -5.28854,-28.85387 -7.84975,-38.01928 -0.42214,-1.51063 -21.98119,-1.69312 -131.49297,-1.11304 -72.04342,0.38161 -132.03804,1.10889 -133.32137,1.61619 -1.28334,0.5073 -2.33334,1.34012 -2.33334,1.85072 0,0.5106 4.35,6.39249 9.66667,13.07086 5.31667,6.67838 16.56667,20.95112 25,31.71721 8.43333,10.76609 23.14975,29.27002 32.70315,41.11983 9.5534,11.84981 26.21896,32.94511 37.03457,46.87844 22.05583,28.41367 27.71341,35.60698 38.26228,48.64833 4.03333,4.98633 9.05673,11.29024 11.1631,14.0087 l 3.82976,4.94264 8.17024,-7.94484 c 4.49363,-4.36966 13.57023,-11.52441 20.17023,-15.89943 z m 85.08108,-213.08874 c 3.21839,-13.3457 3.87756,-18.98609 3.97347,-34 0.13746,-21.51712 -2.6068,-34.00918 -11.56981,-52.66667 -12.56531,-26.15603 -31.56481,-46.02143 -65.32239,-68.29939 -11.82263,-7.80223 -25.43559,-17.96883 -30.25103,-22.59245 l -8.75535,-8.4066 -4.03497,4.3159 c -2.21923,2.37374 -8.17131,9.71589 -13.22684,16.31589 -5.05553,6.6 -24.76439,31.49999 -43.79748,55.33332 -19.03308,23.83333 -41.50545,52.03333 -49.93861,62.66667 -8.43315,10.63333 -18.26659,22.93333 -21.85209,27.33333 -21.12628,25.92547 -26.45238,33.04879 -25.43805,34.0217 0.62264,0.59721 2.63207,1.35641 4.46541,1.68712 1.83333,0.33072 61.50841,0.53152 132.61129,0.44624 l 129.27797,-0.15506 z"
       id="path1" />
  </g>
</svg>
